PathFileType	4	(X/Y/Z)	RBDS025static.trc
DataRate	CameraRate	NumFrames	NumMarkers	Units	OrigDataRate	OrigDataStartFrame	OrigNumFrames
150.000000	150.000000	4	48	mm	150.000000	18	150
Frame#	Time	L.Ankle			L.Ankle.Medial			L.ASIS			L.GTR			L.Heel.Bottom			L.Heel.Lateral			L.Heel.Top			L.HF			L.Iliac.Crest			L.Knee			L.Knee.Medial			L.MT1			L.MT2			L.MT5			L.PSIS			L.Shank.Bottom.Lateral			L.Shank.Bottom.Medial			L.Shank.Top.Lateral			L.Shank.Top.Medial			L.Thigh.Bottom.Lateral			L.Thigh.Bottom.Medial			L.Thigh.Top.Lateral			L.Thigh.Top.Medial			L.TT			R.Ankle			R.Ankle.Medial			R.ASIS			R.GTR			R.Heel.Bottom			R.Heel.Lateral			R.Heel.Top			R.HF			R.Iliac.Crest			R.Knee			R.Knee.Medial			R.MT1			R.MT2			R.MT5			R.PSIS			R.Shank.Bottom.Lateral			R.Shank.Bottom.Medial			R.Shank.Top.Lateral			R.Shank.Top.Medial			R.Thigh.Bottom.Lateral			R.Thigh.Bottom.Medial			R.Thigh.Top.Lateral			R.Thigh.Top.Medial			R.TT			
		X1	Y1	Z1	X2	Y2	Z2	X3	Y3	Z3	X4	Y4	Z4	X5	Y5	Z5	X6	Y6	Z6	X7	Y7	Z7	X8	Y8	Z8	X9	Y9	Z9	X10	Y10	Z10	X11	Y11	Z11	X12	Y12	Z12	X13	Y13	Z13	X14	Y14	Z14	X15	Y15	Z15	X16	Y16	Z16	X17	Y17	Z17	X18	Y18	Z18	X19	Y19	Z19	X20	Y20	Z20	X21	Y21	Z21	X22	Y22	Z22	X23	Y23	Z23	X24	Y24	Z24	X25	Y25	Z25	X26	Y26	Z26	X27	Y27	Z27	X28	Y28	Z28	X29	Y29	Z29	X30	Y30	Z30	X31	Y31	Z31	X32	Y32	Z32	X33	Y33	Z33	X34	Y34	Z34	X35	Y35	Z35	X36	Y36	Z36	X37	Y37	Z37	X38	Y38	Z38	X39	Y39	Z39	X40	Y40	Z40	X41	Y41	Z41	X42	Y42	Z42	X43	Y43	Z43	X44	Y44	Z44	X45	Y45	Z45	X46	Y46	Z46	X47	Y47	Z47	X48	Y48	Z48	

19	0.12	697.9253540039063	100.3090362548828	1055.531494140625	735.5009765625	114.5069885253906	1130.599975585938	842.970703125	967.978515625	1126.455322265625	757.5308837890625	889.1401977539063	1068.878173828125	638.4097290039063	40.74744415283203	1097.12060546875	663.975341796875	62.07758712768555	1052.930297851563	647.989013671875	84.93673706054688	1097.070434570313	714.0579223632813	450.5097045898438	1044.140380859375	760.3216552734375	1033.39794921875	1074.325439453125	730.8966064453125	515.224853515625	1053.65966796875	728.3163452148438	494.0261840820313	1174.369873046875	846.7522583007813	56.08452987670898	1130.168823242188	859.1954345703125	68.94172668457031	1083.566650390625	817.9913940429688	49.93247222900391	1018.200561523438	676.54541015625	1012.084289550781	1178.755004882813	712.2349853515625	197.9637756347656	1042.781616210938	665.2322998046875	198.9219360351563	1073.252075195313	706.4181518554688	277.6949462890625	1033.122192382813	660.4200439453125	279.2759094238281	1061.480346679688	736.0974731445313	631.558837890625	1043.697265625	677.4468994140625	626.0956420898438	1086.52587890625	727.0375366210938	740.5023803710938	1045.995483398438	674.6242065429688	735.4049682617188	1092.052612304688	773.2201538085938	419.1416625976563	1087.973266601563	697.7022094726563	103.0434341430664	1409.115356445313	732.0254516601563	118.810546875	1330.392333984375	848.1886596679688	982.84130859375	1335.436157226563	770.92578125	898.104248046875	1402.99462890625	635.2601928710938	40.87129211425781	1366.245239257813	661.6659545898438	62.46604919433594	1407.293701171875	643.41162109375	85.24442291259766	1366.52490234375	730.4287109375	456.3852233886719	1425.576538085938	781.4888305664063	1042.727416992188	1374.148559570313	737.6442260742188	522.0462646484375	1417.0185546875	734.2269897460938	503.5009155273438	1295.1845703125	846.3643798828125	57.17834091186523	1329.446533203125	857.3626708984375	69.40776824951172	1372.611694335938	818.3416748046875	47.44316101074219	1440.693725585938	680.1328735351563	1019.010131835938	1276.868530273438	703.1942749023438	202.7565155029297	1422.887084960938	662.3031616210938	205.8045959472656	1392.005493164063	698.6893310546875	286.9654235839844	1434.126342773438	656.4507446289063	285.9015808105469	1401.676513671875	735.563720703125	627.943359375	1423.94482421875	676.6620483398438	627.5762939453125	1382.92578125	732.1901245117188	738.6853637695313	1425.135986328125	676.469482421875	737.7146606445313	1385.20654296875	779.9017944335938	431.5724487304688	1373.123901367188	
20	0.1266666666666667	697.93603515625	100.2935638427734	1055.546142578125	735.4877319335938	114.5040969848633	1130.601318359375	842.9747314453125	967.9785766601563	1126.454711914063	757.550537109375	889.1376953125	1068.869140625	638.4141235351563	40.74569702148438	1097.116943359375	663.972412109375	62.07322311401367	1052.92529296875	647.9962768554688	84.93457794189453	1097.075561523438	714.0562133789063	450.5137939453125	1044.139404296875	760.3336181640625	1033.395874023438	1074.321533203125	730.9136962890625	515.225830078125	1053.657348632813	728.3192749023438	494.0260009765625	1174.365356445313	846.747802734375	56.0977783203125	1130.170166015625	859.1928100585938	68.94518280029297	1083.5615234375	817.9884033203125	49.93532562255859	1018.197265625	676.560302734375	1012.086120605469	1178.761352539063	712.2343139648438	197.9603118896484	1042.786743164063	665.2254638671875	198.91650390625	1073.252685546875	706.4135131835938	277.6938171386719	1033.125122070313	660.4172973632813	279.2720642089844	1061.478759765625	736.0853881835938	631.562255859375	1043.68310546875	677.455322265625	626.086181640625	1086.52001953125	727.0399169921875	740.4979248046875	1045.990844726563	674.6046142578125	735.452392578125	1092.05517578125	773.2342529296875	419.1529846191406	1087.96728515625	697.6958618164063	103.0325546264648	1409.119873046875	732.0240478515625	118.8068008422852	1330.382446289063	848.2048950195313	982.83154296875	1335.429321289063	770.9519653320313	898.0963134765625	1402.981689453125	635.2623291015625	40.86351776123047	1366.239990234375	661.66357421875	62.4639892578125	1407.290405273438	643.4085083007813	85.24758911132813	1366.525268554688	730.4325561523438	456.388916015625	1425.563354492188	781.4961547851563	1042.722412109375	1374.133544921875	737.651611328125	522.052001953125	1417.00244140625	734.2379150390625	503.4937744140625	1295.17724609375	846.3631591796875	57.18180847167969	1329.434814453125	857.3521728515625	69.41281890869141	1372.616455078125	818.3380126953125	47.45371246337891	1440.682861328125	680.1520385742188	1019.009155273438	1276.872436523438	703.1798706054688	202.7618255615234	1422.877563476563	662.296630859375	205.8023834228516	1392.005126953125	698.6856079101563	286.9609069824219	1434.11865234375	656.4498901367188	285.9036865234375	1401.670776367188	735.5641479492188	627.9426879882813	1423.93994140625	676.6744995117188	627.5693359375	1382.912353515625	732.181884765625	738.685546875	1425.127197265625	676.4673461914063	737.7241821289063	1385.187133789063	779.9006958007813	431.5690307617188	1373.11181640625	
21	0.1333333333333333	697.9199829101563	100.3012008666992	1055.542602539063	735.5015869140625	114.5023040771484	1130.59765625	842.9857788085938	967.9732055664063	1126.447265625	757.5597534179688	889.1282958984375	1068.864379882813	638.41015625	40.73756408691406	1097.1181640625	663.9668579101563	62.07791519165039	1052.92431640625	647.9969482421875	84.93818664550781	1097.07421875	714.0745239257813	450.5083618164063	1044.132568359375	760.34619140625	1033.393676757813	1074.307495117188	730.9029541015625	515.2239379882813	1053.655883789063	728.3045043945313	494.0191040039063	1174.366577148438	846.7431640625	56.09611129760742	1130.172241210938	859.1973876953125	68.95109558105469	1083.558837890625	817.986083984375	49.92802429199219	1018.198181152344	676.5682983398438	1012.083862304688	1178.750610351563	712.2323608398438	197.9594573974609	1042.784545898438	665.2262573242188	198.9110412597656	1073.251953125	706.4173583984375	277.6848754882813	1033.128051757813	660.4214477539063	279.2702331542969	1061.480712890625	736.10205078125	631.549072265625	1043.679443359375	677.4715576171875	626.0842895507813	1086.517211914063	727.0491333007813	740.4954833984375	1045.989379882813	674.611328125	735.4454345703125	1092.049560546875	773.2384643554688	419.1518249511719	1087.96240234375	697.6957397460938	103.0282211303711	1409.104614257813	732.0294189453125	118.8075256347656	1330.389770507813	848.217041015625	982.8365478515625	1335.403930664063	770.9599609375	898.094970703125	1402.966674804688	635.2611083984375	40.86415481567383	1366.242797851563	661.6695556640625	62.46842956542969	1407.293334960938	643.4108276367188	85.24254608154297	1366.523559570313	730.4370727539063	456.3914794921875	1425.558837890625	781.509521484375	1042.7197265625	1374.117065429688	737.6605224609375	522.04541015625	1416.996459960938	734.219482421875	503.503173828125	1295.158081054688	846.3606567382813	57.17776107788086	1329.449951171875	857.3515014648438	69.41600799560547	1372.614379882813	818.3406372070313	47.44418716430664	1440.678344726563	680.15869140625	1019.008972167969	1276.8623046875	703.1907958984375	202.7492218017578	1422.87255859375	662.3049926757813	205.8009033203125	1391.999755859375	698.6842651367188	286.9607543945313	1434.113037109375	656.4578247070313	285.9054870605469	1401.66796875	735.571044921875	627.9324951171875	1423.928588867188	676.68701171875	627.5733032226563	1382.900634765625	732.2003173828125	738.6800537109375	1425.115356445313	676.4783325195313	737.7177124023438	1385.178588867188	779.9069213867188	431.5711364746094	1373.105224609375	
22	0.14	697.9354858398438	100.2803115844727	1055.538452148438	735.4935302734375	114.5037384033203	1130.601440429688	842.98876953125	967.9766235351563	1126.434326171875	757.5562744140625	889.12353515625	1068.857299804688	638.4166259765625	40.73816299438477	1097.116088867188	663.9757690429688	62.06884384155273	1052.920166015625	647.996826171875	84.93094635009766	1097.081909179688	714.0634155273438	450.4970092773438	1044.132202148438	760.358154296875	1033.384521484375	1074.313354492188	730.9258422851563	515.2086791992188	1053.655151367188	728.3167114257813	494.0408020019531	1174.370727539063	846.7445068359375	56.09482192993164	1130.171264648438	859.1984252929688	68.94267272949219	1083.5556640625	817.9801025390625	49.91487503051758	1018.195922851563	676.5778198242188	1012.079162597656	1178.740112304688	712.2366333007813	197.9485015869141	1042.7822265625	665.2349853515625	198.9118194580078	1073.244750976563	706.4241943359375	277.6860046386719	1033.123413085938	660.4309692382813	279.2654724121094	1061.475219726563	736.1072387695313	631.5445556640625	1043.687377929688	677.4766235351563	626.0792846679688	1086.5185546875	727.0846557617188	740.4264526367188	1045.957641601563	674.6190185546875	735.4464111328125	1092.042724609375	773.2265014648438	419.14599609375	1087.969360351563	697.7047119140625	103.0317153930664	1409.106567382813	732.0165405273438	118.8083190917969	1330.377563476563	848.2324829101563	982.8289794921875	1335.396850585938	770.962158203125	898.082763671875	1402.957275390625	635.2643432617188	40.86077499389648	1366.236083984375	661.6657104492188	62.46308517456055	1407.296508789063	643.4097290039063	85.23947906494141	1366.514770507813	730.4462890625	456.3919677734375	1425.548461914063	781.5156860351563	1042.72314453125	1374.106689453125	737.6685180664063	522.04638671875	1416.98291015625	734.2700805664063	503.4969787597656	1295.1630859375	846.3485717773438	57.15582275390625	1329.447387695313	857.35693359375	69.40505981445313	1372.609008789063	818.331787109375	47.44038009643555	1440.68505859375	680.1697387695313	1019.00048828125	1276.8642578125	703.1841430664063	202.7553863525391	1422.875244140625	662.30419921875	205.8028106689453	1392.000854492188	698.693603515625	286.96240234375	1434.109375	656.4685668945313	285.9033203125	1401.663452148438	735.5810546875	627.930419921875	1423.9140625	676.6932983398438	627.5722045898438	1382.89306640625	732.21240234375	738.677978515625	1425.096923828125	676.4868774414063	737.7169799804688	1385.169189453125	779.92626953125	431.5724487304688	1373.103515625	
